<svg width="415" height="304" viewBox="0 0 415 304" fill="none" xmlns="http://www.w3.org/2000/svg">
<path d="M95.7606 96.2964C97.3741 95.1522 99.2289 94.3676 101.192 93.9988C107.049 93.1067 112.307 97.7271 117.973 99.6123C124.813 101.885 132.243 100.084 138.83 97.0875C145.417 94.0914 151.579 89.8581 158.253 87.0471C164.927 84.2361 172.505 82.9064 179.11 85.8184C178.598 90.9664 178.665 96.1531 179.31 101.287C171.367 89.2101 152.856 97.7187 144.001 103.686C141.246 105.546 138.587 107.616 135.597 108.946C127.628 112.489 122.266 107.422 115.505 103.677C113.643 102.652 111.538 102.113 109.396 102.113C107.254 102.113 105.148 102.652 103.286 103.677C97.716 106.732 94.2485 114.021 93.6489 119.988C93.5015 121.108 93.5367 122.244 93.7532 123.354C94.1558 124.514 94.4923 125.694 94.7613 126.889C95.2132 131.038 91.485 128.942 89.6774 127.537C88.5642 126.604 87.5134 125.603 86.5315 124.541C86.0361 124.044 82.7686 121.343 82.8728 120.812C84.5501 112.388 88.93 100.782 95.7606 96.2964Z" fill="#5C6773"/>
<path d="M93.5098 129.649C92.0151 129.649 90.0858 128.269 89.4428 127.772C88.3103 126.858 87.2365 125.877 86.2273 124.835C86.1144 124.726 85.8623 124.499 85.5408 124.221C82.8033 121.805 82.3514 121.208 82.447 120.737C84.1851 112.135 88.6085 100.488 95.4826 95.9428C97.1497 94.7684 99.0635 93.9639 101.088 93.5863C105.12 92.972 108.909 94.8824 112.533 96.7255C114.314 97.6987 116.167 98.5427 118.077 99.2504C123.848 101.161 130.757 100.311 138.621 96.7255C141.646 95.3453 144.627 93.6789 147.512 92.0714C150.928 90.0773 154.459 88.2733 158.088 86.6683C166.109 83.3019 173.461 82.8642 179.336 85.4396C179.417 85.4768 179.484 85.5369 179.529 85.612C179.574 85.6872 179.595 85.7738 179.588 85.8604C179.078 90.9774 179.142 96.1329 179.779 101.237C179.793 101.331 179.773 101.426 179.722 101.507C179.671 101.589 179.593 101.651 179.501 101.683C179.407 101.713 179.306 101.711 179.213 101.679C179.12 101.647 179.041 101.586 178.988 101.506C178.071 100.052 176.85 98.8018 175.402 97.8348C173.954 96.8678 172.313 96.206 170.585 95.8923C162.442 94.3017 151.666 99.0568 144.288 104.031C143.671 104.443 143.062 104.872 142.454 105.293C140.38 106.837 138.16 108.187 135.823 109.324C129.036 112.346 124.056 109.324 118.773 106.076C117.669 105.394 116.513 104.696 115.34 104.039C113.541 103.055 111.51 102.537 109.444 102.537C107.377 102.537 105.346 103.055 103.547 104.039C97.8637 107.161 94.6744 114.509 94.1182 120.03C93.9792 121.1 94.0144 122.185 94.2224 123.245C94.3416 123.723 94.4867 124.195 94.657 124.659C94.9293 125.357 95.1217 126.082 95.2305 126.821C95.387 128.227 95.0915 129.136 94.3615 129.523C94.0931 129.634 93.8002 129.677 93.5098 129.649ZM83.2726 120.821C84.1216 121.828 85.0641 122.758 86.0883 123.598C86.4272 123.901 86.6879 124.128 86.8096 124.246C87.7954 125.265 88.8461 126.224 89.9555 127.116C91.3199 128.176 93.1448 129.136 93.9096 128.723C94.4049 128.463 94.4136 127.554 94.3354 126.847C94.2367 126.167 94.0589 125.501 93.8053 124.861C93.6192 124.368 93.4654 123.865 93.3447 123.354C93.1131 122.212 93.072 121.041 93.2231 119.887C93.7966 114.164 97.1337 106.513 103.078 103.256C105.008 102.2 107.187 101.644 109.405 101.644C111.622 101.644 113.801 102.2 115.731 103.256C116.93 103.913 118.086 104.62 119.207 105.302C124.508 108.542 129.079 111.336 135.432 108.508C137.722 107.394 139.896 106.069 141.924 104.552C142.541 104.132 143.149 103.711 143.766 103.29C151.292 98.2404 162.32 93.3759 170.706 95.0086C173.866 95.5806 176.705 97.2395 178.701 99.6796C178.241 95.141 178.223 90.5704 178.649 86.0287C171.593 83.0662 163.754 85.1197 158.392 87.3752C154.816 88.9683 151.335 90.7525 147.964 92.7195C145.07 94.3354 142.072 96.0102 139.021 97.4072C130.948 101.102 123.813 101.969 117.825 99.9321C115.875 99.2269 113.981 98.383 112.159 97.4072C108.475 95.6062 104.998 93.8304 101.262 94.4111C99.375 94.7729 97.5943 95.5345 96.0474 96.6414C89.3558 101.026 85.0107 112.396 83.2726 120.821Z" fill="#5C6773"/>
<path d="M132.312 124.675C124.3 122.992 116.009 117.825 107.918 119.693C103.382 120.737 98.95 122.883 94.3615 123.203C92.3019 123.346 82.8728 120.812 82.8728 120.812C82.8728 120.812 86.8443 128.816 91.8065 131.232C94.3458 132.409 97.1904 132.825 99.9755 132.427C102.904 132.048 105.459 130.331 108.414 130.045C111.125 129.776 114.097 130.954 116.6 131.93C125.577 135.406 133.616 140.792 143.723 139.42C153.282 138.124 161.677 132.477 168.508 126.199C169.272 125.492 170.02 124.776 170.75 124.053C168.143 120.114 169.168 116.209 165.579 117.202C162.181 118.145 158.409 121.898 154.838 123.144C147.633 125.721 139.818 126.252 132.312 124.675V124.675Z" fill="white"/>
<path d="M140.438 140.06C134.007 140.06 128.419 137.535 122.553 134.935C120.563 134.042 118.512 133.117 116.47 132.317L116.339 132.267C113.863 131.307 111.047 130.213 108.518 130.457C107.052 130.664 105.623 131.063 104.269 131.644C102.929 132.202 101.526 132.606 100.088 132.847C97.2188 133.26 94.2873 132.826 91.6762 131.602C86.6358 129.153 82.7077 121.326 82.5426 120.998C82.5052 120.924 82.491 120.842 82.5018 120.761C82.5127 120.68 82.548 120.604 82.6035 120.543C82.6552 120.481 82.725 120.434 82.8039 120.41C82.8828 120.386 82.9673 120.386 83.0467 120.408C85.6538 121.107 92.7625 122.883 94.3963 122.782C97.2545 122.453 100.06 121.784 102.748 120.787C104.425 120.24 106.154 119.676 107.875 119.281C113.463 117.993 119.172 119.971 124.621 121.881C127.174 122.833 129.787 123.629 132.443 124.263C139.867 125.835 147.6 125.309 154.725 122.748C156.549 121.989 158.271 121.016 159.852 119.853C161.729 118.599 163.658 117.328 165.492 116.798C168.16 116.057 168.716 117.791 169.368 119.802C169.763 121.218 170.362 122.573 171.149 123.825C171.205 123.905 171.23 124 171.22 124.095C171.211 124.19 171.167 124.279 171.097 124.347C170.359 125.079 169.603 125.803 168.847 126.502C160.426 134.236 151.996 138.722 143.81 139.833C142.693 139.988 141.566 140.064 140.438 140.06V140.06ZM109.222 129.59C111.734 129.59 114.323 130.6 116.635 131.492L116.765 131.543C118.86 132.384 120.919 133.285 122.918 134.177C129.662 137.19 136.032 140.068 143.662 139.008C151.666 137.922 159.922 133.512 168.212 125.896C168.881 125.29 169.55 124.65 170.202 124.002C169.454 122.765 168.87 121.442 168.464 120.063C167.752 117.858 167.421 117.126 165.657 117.614C163.722 118.326 161.909 119.316 160.278 120.551C158.637 121.76 156.848 122.766 154.951 123.548C147.674 126.166 139.774 126.703 132.191 125.096C129.488 124.453 126.829 123.646 124.23 122.681C118.868 120.812 113.315 118.877 107.979 120.105C106.293 120.501 104.59 121.056 102.93 121.587C100.174 122.614 97.295 123.301 94.3615 123.632C92.6234 123.75 86.1491 122.117 83.6811 121.477C84.8369 123.573 88.1305 128.993 91.9717 130.861C94.4287 132.005 97.1841 132.407 99.8799 132.014C101.253 131.789 102.593 131.402 103.869 130.861C105.302 130.24 106.817 129.812 108.37 129.59C108.648 129.59 108.935 129.59 109.222 129.59Z" fill="#5C6773"/>
<path d="M120.233 144.361L119.598 173.766L213.923 202.869L313.124 166.04C314.444 165.56 315.58 164.697 316.376 163.569C317.172 162.441 317.59 161.103 317.573 159.737L317.295 138.074C317.271 136.383 316.585 134.765 315.375 133.546L280.144 90.8764L283.272 75.9631L262.059 69.9119L259.687 58.6344L229.071 51.4386L161.182 63.7177L168.047 127.15L120.233 144.361Z" fill="#5C6773"/>
<path d="M213.923 203.282C213.88 203.29 213.836 203.29 213.793 203.282L119.468 174.196C119.379 174.166 119.302 174.11 119.248 174.036C119.193 173.963 119.164 173.874 119.164 173.783L119.798 144.377C119.801 144.293 119.83 144.211 119.881 144.142C119.932 144.073 120.003 144.02 120.085 143.99L167.569 126.872L160.747 63.7513C160.736 63.6463 160.766 63.541 160.83 63.4556C160.894 63.3702 160.988 63.3107 161.095 63.2885L229.019 51.0094C229.079 50.9969 229.141 50.9969 229.201 51.0094L259.817 58.2051C259.897 58.222 259.971 58.2612 260.028 58.3181C260.085 58.375 260.123 58.4469 260.139 58.525L262.424 69.5416L283.385 75.517C283.489 75.5482 283.577 75.6152 283.633 75.7051C283.689 75.7951 283.709 75.9018 283.69 76.0052L280.605 90.7249L315.705 133.251C316.977 134.544 317.698 136.255 317.721 138.04L317.999 159.703C318.023 161.16 317.581 162.589 316.735 163.794C315.889 164.999 314.679 165.922 313.272 166.436L214.071 203.256C214.024 203.274 213.974 203.282 213.923 203.282V203.282ZM120.068 173.463L213.923 202.423L312.993 165.645C314.227 165.195 315.288 164.388 316.033 163.334C316.777 162.28 317.17 161.03 317.156 159.754L316.878 138.091C316.852 136.518 316.209 135.013 315.079 133.883L279.814 91.1205C279.772 91.0738 279.742 91.0182 279.727 90.9582C279.712 90.8981 279.712 90.8355 279.727 90.7754L282.768 76.2408L261.912 70.2991C261.835 70.2785 261.766 70.2376 261.712 70.1811C261.659 70.1246 261.622 70.0547 261.607 69.9792L259.357 58.9794L229.088 51.8678L161.66 64.0627L168.438 127.108C168.451 127.201 168.431 127.295 168.38 127.375C168.329 127.455 168.252 127.515 168.16 127.545L120.641 144.655L120.068 173.463Z" fill="#5C6773"/>
<path d="M156.741 116.512V74.5912C156.741 64.8959 161.581 62.6993 165.431 62.3879C169.281 62.0765 247.842 78.0334 252.735 79.9355C257.627 81.8375 257.897 82.4603 259.191 83.3776C260.486 84.295 259.191 155.335 259.191 155.335C259.191 155.335 218.807 172.226 214.002 171.604C209.196 170.981 121.927 146.263 120.311 144.386C118.694 142.509 120.311 136.248 123.544 134.691C126.777 133.134 156.741 116.512 156.741 116.512Z" fill="white"/>
<path d="M214.184 172.016H213.863C209.066 171.393 121.693 146.768 119.902 144.647C119.155 143.805 118.964 142.122 119.381 140.178C119.798 138.234 121.119 135.347 123.266 134.286C126.307 132.814 153.56 117.783 156.289 116.268V74.5912C156.289 64.7696 161.251 62.3037 165.405 61.967H165.527C170.411 61.967 247.477 77.4442 252.83 79.523C256.949 81.1136 257.862 81.829 258.826 82.5865L259.391 83.0157C260.669 83.9414 260.052 128.715 259.565 155.318C259.565 155.399 259.54 155.478 259.494 155.546C259.447 155.613 259.381 155.666 259.304 155.697C257.697 156.379 220.25 172.016 214.184 172.016ZM165.614 62.8086H165.501C159.974 63.2547 157.175 67.2187 157.175 74.5912V116.512C157.175 116.586 157.154 116.659 157.116 116.724C157.078 116.789 157.024 116.843 156.958 116.882C155.724 117.555 126.863 133.487 123.657 135.036C121.919 135.877 120.676 138.309 120.233 140.338C119.876 142.021 120.007 143.435 120.563 144.091C121.554 144.933 139.534 150.445 166.344 158.138C190.364 165.03 211.733 170.871 213.976 171.157C217.704 171.645 244.713 160.881 258.722 155.032C259.218 127.419 259.652 86.0202 258.818 83.6385L258.296 83.2345C257.427 82.5191 256.558 81.8458 252.526 80.2973C247.19 78.2522 170.472 62.8086 165.614 62.8086Z" fill="#5C6773"/>
<path d="M179.353 90.3461H179.249L164.388 86.7524C164.294 86.7284 164.211 86.675 164.151 86.6004C164.091 86.5259 164.059 86.4344 164.058 86.34V78.5047C164.058 78.4401 164.072 78.3764 164.101 78.3181C164.13 78.2598 164.171 78.2085 164.223 78.168C164.277 78.1307 164.337 78.1047 164.402 78.0917C164.466 78.0786 164.533 78.0788 164.597 78.0923L179.457 81.5344C179.552 81.5572 179.637 81.6102 179.697 81.6851C179.756 81.7599 179.789 81.8521 179.788 81.9468V89.9253C179.788 89.9886 179.773 90.0511 179.745 90.1081C179.716 90.165 179.674 90.2148 179.623 90.2535C179.546 90.3123 179.451 90.3449 179.353 90.3461ZM164.962 85.995L178.953 89.3614V82.2751L164.962 79.0349V85.995Z" fill="#D1D3D4"/>
<path d="M169.012 111.9C172.285 111.9 174.938 108.723 174.938 104.805C174.938 100.887 172.285 97.7102 169.012 97.7102C165.738 97.7102 163.085 100.887 163.085 104.805C163.085 108.723 165.738 111.9 169.012 111.9Z" fill="#768492"/>
<path d="M262.059 70.3159C262.016 70.324 261.972 70.324 261.929 70.3159L240.446 64.0627C240.356 64.0353 240.278 63.9802 240.223 63.9058C240.168 63.8314 240.14 63.7417 240.142 63.6503C240.142 63.5589 240.173 63.47 240.232 63.3981C240.29 63.3263 240.372 63.2757 240.464 63.2548L259.583 58.2472C259.637 58.232 259.695 58.2276 259.751 58.2342C259.808 58.2408 259.863 58.2584 259.912 58.2859C259.961 58.3134 260.005 58.3502 260.039 58.3941C260.074 58.4381 260.099 58.4883 260.113 58.5418C260.13 58.5948 260.135 58.6507 260.129 58.7059C260.123 58.7611 260.105 58.8145 260.076 58.8627C260.048 58.9108 260.009 58.9528 259.963 58.9859C259.917 59.019 259.864 59.0426 259.809 59.0551L242.132 63.684L262.12 69.5163C262.231 69.5476 262.324 69.6201 262.379 69.718C262.435 69.8158 262.448 69.931 262.416 70.0381C262.388 70.1114 262.34 70.176 262.277 70.225C262.215 70.2739 262.139 70.3053 262.059 70.3159V70.3159Z" fill="#D1D3D4"/>
<path d="M259.148 83.7731C259.033 83.7899 258.915 83.7616 258.822 83.6945C258.728 83.6274 258.666 83.5271 258.648 83.4155C258.631 83.3039 258.66 83.1902 258.73 83.0994C258.799 83.0087 258.902 82.9483 259.018 82.9315L283.151 75.5422C283.266 75.5087 283.39 75.521 283.496 75.5762C283.602 75.6314 283.681 75.7252 283.716 75.8368C283.75 75.9484 283.738 76.0687 283.681 76.1713C283.624 76.2739 283.527 76.3503 283.412 76.3838L259.287 83.79L259.148 83.7731Z" fill="#D1D3D4"/>
<path d="M213.923 203.29C213.808 203.29 213.698 203.246 213.616 203.167C213.535 203.088 213.489 202.981 213.489 202.869V171.578C213.489 171.467 213.535 171.36 213.616 171.281C213.698 171.202 213.808 171.157 213.923 171.157C214.039 171.157 214.149 171.202 214.231 171.281C214.312 171.36 214.358 171.467 214.358 171.578V202.869C214.356 202.98 214.309 203.086 214.228 203.164C214.147 203.243 214.038 203.288 213.923 203.29V203.29Z" fill="#D1D3D4"/>
<path d="M207.336 162.624H206.936C199.541 162.001 126.116 139.471 123.005 138.511C122.89 138.477 122.793 138.399 122.737 138.296C122.681 138.193 122.669 138.072 122.705 137.96C122.741 137.849 122.821 137.755 122.928 137.701C123.034 137.646 123.159 137.635 123.274 137.67C124.039 137.906 199.749 161.126 207.015 161.74C214.28 162.354 246.017 142.677 248.059 139.858L249.345 83.344C249.35 83.2331 249.398 83.1282 249.481 83.0514C249.564 82.9745 249.674 82.9316 249.788 82.9316C249.846 82.9316 249.903 82.9428 249.956 82.9646C250.008 82.9863 250.056 83.0182 250.096 83.0583C250.136 83.0984 250.167 83.1459 250.187 83.1979C250.207 83.2499 250.217 83.3053 250.214 83.3609L248.919 139.993C248.92 140.061 248.902 140.127 248.867 140.186C247.347 142.837 215.853 162.624 207.336 162.624Z" fill="#D1D3D4"/>
<path d="M245.582 139.774C245.545 139.782 245.507 139.782 245.469 139.774L159.435 117.656C159.325 117.627 159.231 117.556 159.174 117.46C159.117 117.364 159.101 117.25 159.131 117.143C159.144 117.089 159.168 117.038 159.202 116.993C159.236 116.949 159.28 116.911 159.329 116.884C159.379 116.856 159.434 116.839 159.491 116.833C159.548 116.827 159.606 116.832 159.661 116.848L245.695 138.966C245.752 138.973 245.807 138.991 245.857 139.019C245.907 139.047 245.951 139.084 245.986 139.128C246.021 139.172 246.047 139.222 246.062 139.276C246.077 139.33 246.081 139.386 246.073 139.441C246.066 139.497 246.047 139.55 246.019 139.598C245.99 139.647 245.952 139.689 245.906 139.723C245.861 139.757 245.809 139.782 245.753 139.796C245.697 139.811 245.639 139.815 245.582 139.807V139.774Z" fill="#D1D3D4"/>
<path d="M204.642 123.099C215.08 122.736 223.118 111.076 222.598 97.0576C222.077 83.0388 213.194 71.969 202.757 72.3325C192.32 72.6961 184.281 84.3554 184.802 98.3742C185.322 112.393 194.205 123.463 204.642 123.099Z" fill="#5C6773"/>
<path d="M204.129 123.522C199.132 123.522 194.361 120.998 190.659 116.386C186.957 111.774 184.62 105.251 184.368 98.3836C183.837 84.1604 192.076 72.2937 202.739 71.915C207.953 71.7214 212.898 74.263 216.73 79.0434C220.563 83.8237 222.761 90.1779 223.022 97.0454C223.552 111.269 215.305 123.135 204.651 123.514L204.129 123.522ZM203.26 72.7482H202.774C192.597 73.11 184.733 84.5896 185.237 98.3583C185.489 105.091 187.661 111.269 191.32 115.872C194.978 120.476 199.723 122.824 204.599 122.681C214.784 122.327 222.649 110.839 222.136 97.0706C221.892 90.3378 219.72 84.1604 216.053 79.5568C212.507 75.1467 207.979 72.7482 203.252 72.7482H203.26Z" fill="#5C6773"/>
<path d="M190.555 123.236L204.633 123.093L202.748 72.3358L188.765 75.0963L190.555 123.236Z" fill="#5C6773"/>
<path d="M190.555 123.649C190.443 123.649 190.335 123.607 190.254 123.531C190.173 123.456 190.125 123.353 190.121 123.245L188.382 75.1045C188.38 75.0073 188.412 74.9122 188.474 74.8355C188.536 74.7587 188.623 74.7051 188.721 74.6837L202.704 71.9233C202.766 71.9107 202.831 71.9117 202.892 71.9263C202.954 71.9409 203.011 71.9686 203.06 72.0074C203.114 72.0494 203.154 72.1041 203.179 72.1661C203.203 72.2282 203.21 72.2954 203.2 72.3609L205.085 123.127C205.087 123.183 205.077 123.238 205.056 123.29C205.035 123.342 205.004 123.39 204.964 123.43C204.883 123.508 204.774 123.553 204.659 123.556L190.581 123.691L190.555 123.649ZM189.217 75.4328L190.955 122.807L204.173 122.681L202.33 72.8406L189.217 75.4328Z" fill="#5C6773"/>
<path d="M190.552 123.234C200.447 122.89 208.068 111.833 207.575 98.5389C207.081 85.2447 198.659 74.747 188.764 75.0917C178.869 75.4364 171.248 86.4929 171.741 99.7871C172.235 113.081 180.657 123.579 190.552 123.234Z" fill="white"/>
<path d="M190.086 123.699C180.179 123.699 171.836 113.12 171.306 99.8311C170.811 86.3654 178.632 75.0626 188.756 74.7091C193.675 74.5408 198.402 76.9394 202.044 81.442C205.813 86.4003 207.9 92.3703 208.014 98.5266V98.5266C208.518 111.992 200.688 123.304 190.572 123.657L190.086 123.699ZM189.217 75.5423H188.756C179.119 75.8705 171.671 86.7525 172.149 99.7975C172.653 112.607 180.605 122.858 190.086 122.858H190.538C200.184 122.521 207.632 111.639 207.145 98.594C207.038 92.6172 205.016 86.8203 201.357 82.0058C197.985 77.781 193.718 75.5086 189.243 75.5086L189.217 75.5423Z" fill="#5C6773"/>
<path d="M190.927 117.583C198.745 117.28 204.732 108.523 204.298 98.0229C203.864 87.5229 197.175 79.2565 189.356 79.5594C181.538 79.8623 175.551 88.6197 175.985 99.1197C176.418 109.62 183.108 117.886 190.927 117.583Z" fill="#768492"/>
<path d="M229.21 83.3524V101.186L243.21 104.805V86.1718L229.21 83.3524Z" fill="#5C6773"/>
<path d="M243.175 105.226H243.062L229.062 101.607C228.971 101.582 228.89 101.529 228.833 101.456C228.775 101.383 228.742 101.295 228.74 101.203V83.3524C228.74 83.29 228.755 83.2284 228.782 83.172C228.81 83.1156 228.85 83.0659 228.9 83.0264C228.95 82.9869 229.008 82.9587 229.071 82.9438C229.134 82.9288 229.199 82.9275 229.262 82.94L243.262 85.7594C243.36 85.777 243.448 85.827 243.511 85.9008C243.574 85.9745 243.609 86.0674 243.61 86.1634V104.805C243.61 104.87 243.595 104.935 243.565 104.994C243.535 105.052 243.49 105.103 243.436 105.142C243.36 105.196 243.269 105.225 243.175 105.226V105.226ZM229.61 100.866L242.741 104.233V86.5084L229.61 83.8658V100.866Z" fill="#5C6773"/>
<path d="M149.415 146.221C149.342 146.222 149.27 146.205 149.206 146.171C149.142 146.137 149.088 146.087 149.05 146.027C148.987 145.934 148.965 145.821 148.987 145.712C149.01 145.604 149.076 145.508 149.172 145.446L183.316 123.766C183.412 123.706 183.529 123.684 183.641 123.706C183.753 123.728 183.852 123.792 183.916 123.884C183.979 123.978 184.002 124.093 183.979 124.203C183.956 124.313 183.89 124.41 183.794 124.473L149.65 146.145C149.582 146.193 149.499 146.22 149.415 146.221V146.221Z" fill="#D1D3D4"/>
<path d="M154.69 148.106C154.619 148.108 154.549 148.091 154.486 148.059C154.424 148.026 154.371 147.979 154.334 147.921C154.301 147.875 154.279 147.824 154.267 147.77C154.256 147.715 154.256 147.66 154.267 147.605C154.279 147.551 154.301 147.5 154.334 147.454C154.366 147.409 154.407 147.37 154.455 147.34L189.417 124.667C189.464 124.635 189.517 124.613 189.573 124.601C189.63 124.589 189.688 124.588 189.744 124.599C189.801 124.609 189.855 124.63 189.903 124.66C189.951 124.691 189.993 124.73 190.025 124.776C190.088 124.871 190.111 124.985 190.088 125.095C190.066 125.205 189.999 125.302 189.903 125.366L154.933 148.038C154.862 148.086 154.776 148.109 154.69 148.106V148.106Z" fill="#D1D3D4"/>
<path d="M160.765 149.89C160.692 149.889 160.621 149.871 160.557 149.837C160.493 149.804 160.439 149.755 160.4 149.696C160.337 149.603 160.316 149.489 160.341 149.38C160.365 149.271 160.433 149.176 160.53 149.116L195.291 126.805C195.338 126.768 195.393 126.741 195.451 126.726C195.51 126.711 195.571 126.708 195.63 126.717C195.69 126.725 195.747 126.746 195.798 126.778C195.849 126.81 195.893 126.851 195.926 126.9C195.959 126.949 195.982 127.004 195.992 127.061C196.002 127.119 196 127.178 195.985 127.235C195.97 127.292 195.944 127.345 195.906 127.391C195.869 127.437 195.823 127.476 195.769 127.503L161.008 149.814C160.937 149.863 160.852 149.889 160.765 149.89Z" fill="#D1D3D4"/>
<path d="M167.343 151.834C167.272 151.835 167.203 151.819 167.14 151.786C167.078 151.754 167.025 151.707 166.987 151.649C166.954 151.604 166.931 151.553 166.919 151.499C166.907 151.445 166.906 151.39 166.917 151.336C166.927 151.281 166.949 151.23 166.98 151.184C167.012 151.138 167.052 151.099 167.1 151.068L201.939 127.949C201.986 127.91 202.04 127.881 202.099 127.864C202.157 127.846 202.219 127.841 202.28 127.849C202.341 127.856 202.4 127.876 202.452 127.907C202.504 127.938 202.549 127.98 202.584 128.029C202.619 128.078 202.642 128.134 202.653 128.192C202.664 128.251 202.662 128.311 202.647 128.369C202.632 128.426 202.604 128.48 202.566 128.527C202.528 128.574 202.481 128.612 202.426 128.639L167.569 151.758C167.502 151.803 167.424 151.829 167.343 151.834V151.834Z" fill="#D1D3D4"/>
<path d="M199.723 99.5871C199.608 99.5871 199.498 99.5427 199.416 99.4638C199.335 99.3849 199.289 99.2779 199.289 99.1663C199.289 89.3531 190.598 84.9178 190.477 84.8589C190.375 84.8054 190.3 84.7156 190.265 84.6087C190.231 84.5018 190.242 84.3862 190.294 84.2866C190.348 84.189 190.439 84.1157 190.548 84.0826C190.657 84.0495 190.775 84.0593 190.877 84.1099C190.972 84.1099 200.158 88.8313 200.158 99.1494C200.16 99.2061 200.151 99.2626 200.13 99.3156C200.109 99.3686 200.078 99.417 200.037 99.4579C199.996 99.4988 199.948 99.5313 199.894 99.5535C199.84 99.5757 199.782 99.5871 199.723 99.5871V99.5871Z" fill="white"/>
<path d="M127.341 163.339C127.341 163.339 116.913 162.388 102.339 176.434C91.1548 187.224 97.1772 196.709 82.4036 207.86L160.73 238.52C160.73 238.52 165.44 239.538 172.14 229.658C179.57 218.717 166.448 199.099 202.556 187.215L127.341 163.339Z" fill="white"/>
<path d="M161.164 239C160.998 239.003 160.832 238.989 160.669 238.957L82.2732 208.264C82.2021 208.236 82.1397 208.191 82.0925 208.133C82.0452 208.074 82.0148 208.005 82.0042 207.931C81.9936 207.858 82.0032 207.783 82.0322 207.714C82.0611 207.646 82.1083 207.586 82.1689 207.54C90.1293 201.523 91.989 195.892 93.7879 190.456C95.3087 185.852 96.8904 181.097 102.035 176.148C116.565 162.119 126.942 162.893 127.385 162.927H127.48L202.695 186.82C202.782 186.849 202.856 186.904 202.909 186.976C202.962 187.049 202.991 187.135 202.991 187.224C202.994 187.311 202.967 187.396 202.915 187.468C202.864 187.539 202.79 187.592 202.704 187.619C177.702 195.859 176.633 207.608 175.634 217.968C175.217 222.369 174.826 226.527 172.54 229.902C166.909 238.2 162.589 239 161.164 239ZM160.93 238.158C160.982 238.158 165.466 238.806 171.81 229.456C173.983 226.258 174.365 222.201 174.765 217.909C175.695 207.978 176.85 195.657 201.201 187.249L127.254 163.76C126.507 163.709 116.383 163.474 102.643 176.729C97.6465 181.551 96.1778 185.987 94.6135 190.716C92.8233 196.136 90.9636 201.742 83.3161 207.751L160.93 238.158V238.158Z" fill="#5C6773"/>
<path d="M132.669 166.47C132.669 166.47 115.714 169.887 108.996 178.336C98.3069 191.802 102.687 197.433 94.4571 204.931L160.765 230.382C160.765 230.382 165.788 226.83 167.778 218.692C169.768 210.553 169.594 203.593 175.156 196.709C180.718 189.824 194.214 184.573 194.214 184.573" fill="#768492"/>
<path d="M119.544 270.552L106.8 257.64L106.848 270H104.496V252.12H104.616L117.336 265.224L117.288 252.648H119.616V270.552H119.544ZM123.189 264.936C123.189 263.944 123.421 263.048 123.885 262.248C124.365 261.448 125.021 260.816 125.853 260.352C126.685 259.888 127.637 259.656 128.709 259.656C129.781 259.656 130.725 259.888 131.541 260.352C132.357 260.816 132.989 261.448 133.437 262.248C133.901 263.048 134.133 263.944 134.133 264.936C134.133 265.928 133.901 266.824 133.437 267.624C132.989 268.424 132.349 269.064 131.517 269.544C130.701 270.008 129.749 270.24 128.661 270.24C127.605 270.24 126.661 270.024 125.829 269.592C125.013 269.16 124.365 268.544 123.885 267.744C123.421 266.944 123.189 266.008 123.189 264.936ZM125.445 264.96C125.445 265.6 125.581 266.184 125.853 266.712C126.141 267.224 126.525 267.632 127.005 267.936C127.485 268.24 128.029 268.392 128.637 268.392C129.261 268.392 129.813 268.24 130.293 267.936C130.773 267.632 131.149 267.224 131.421 266.712C131.709 266.184 131.853 265.6 131.853 264.96C131.853 264.32 131.709 263.744 131.421 263.232C131.149 262.704 130.773 262.288 130.293 261.984C129.813 261.664 129.261 261.504 128.637 261.504C128.029 261.504 127.477 261.664 126.981 261.984C126.501 262.304 126.125 262.728 125.853 263.256C125.581 263.768 125.445 264.336 125.445 264.96ZM145.277 252.648H147.605V270H145.277V252.648ZM154.054 260.064L154.198 261.96C154.582 261.24 155.102 260.68 155.758 260.28C156.43 259.864 157.198 259.656 158.062 259.656C158.878 259.656 159.558 259.848 160.102 260.232C160.662 260.616 161.006 261.136 161.134 261.792C161.534 261.12 162.054 260.6 162.694 260.232C163.35 259.848 164.046 259.656 164.782 259.656C165.742 259.656 166.502 259.936 167.062 260.496C167.638 261.056 167.942 261.768 167.974 262.632V270H165.742V263.472C165.71 262.96 165.574 262.536 165.334 262.2C165.11 261.848 164.718 261.656 164.158 261.624C163.566 261.624 163.046 261.8 162.598 262.152C162.15 262.488 161.798 262.936 161.542 263.496C161.286 264.056 161.15 264.648 161.134 265.272V270H158.878V263.472C158.862 262.96 158.726 262.536 158.47 262.2C158.23 261.848 157.822 261.656 157.246 261.624C156.67 261.624 156.158 261.8 155.71 262.152C155.262 262.488 154.91 262.936 154.654 263.496C154.398 264.056 154.27 264.656 154.27 265.296V270H152.038V260.064H154.054ZM175.994 270.24C175.05 270.24 174.194 270.04 173.426 269.64C172.674 269.24 172.074 268.656 171.626 267.888C171.194 267.104 170.978 266.152 170.978 265.032C170.978 263.912 171.202 262.952 171.65 262.152C172.114 261.352 172.73 260.736 173.498 260.304C174.282 259.872 175.138 259.656 176.066 259.656C176.962 259.656 177.722 259.848 178.346 260.232C178.97 260.616 179.458 261.08 179.81 261.624L179.978 260.064H182.042V270H179.81V268.368C179.618 268.624 179.338 268.896 178.97 269.184C178.618 269.472 178.186 269.72 177.674 269.928C177.178 270.136 176.618 270.24 175.994 270.24ZM176.594 268.392C177.41 268.392 178.106 268.168 178.682 267.72C179.258 267.256 179.634 266.632 179.81 265.848V263.88C179.618 263.192 179.218 262.624 178.61 262.176C178.002 261.728 177.306 261.504 176.522 261.504C175.914 261.504 175.362 261.648 174.866 261.936C174.37 262.224 173.97 262.624 173.666 263.136C173.378 263.648 173.234 264.24 173.234 264.912C173.234 265.568 173.386 266.16 173.69 266.688C173.994 267.2 174.402 267.616 174.914 267.936C175.426 268.24 175.986 268.392 176.594 268.392ZM190.728 274.92C189.624 274.92 188.704 274.728 187.968 274.344C187.232 273.976 186.552 273.504 185.928 272.928L187.248 271.392C187.76 271.904 188.288 272.288 188.832 272.544C189.376 272.816 189.992 272.952 190.68 272.952C191.8 272.952 192.656 272.68 193.248 272.136C193.84 271.608 194.144 270.904 194.16 270.024V268.2C193.824 268.792 193.304 269.28 192.6 269.664C191.896 270.048 191.064 270.24 190.104 270.24C189.176 270.24 188.328 270.008 187.56 269.544C186.808 269.08 186.2 268.456 185.736 267.672C185.288 266.872 185.064 265.976 185.064 264.984C185.064 263.944 185.304 263.024 185.784 262.224C186.264 261.424 186.896 260.8 187.68 260.352C188.464 259.888 189.32 259.656 190.248 259.656C191.112 259.656 191.896 259.824 192.6 260.16C193.304 260.496 193.832 260.928 194.184 261.456L194.376 260.064H196.416V270.072C196.416 270.968 196.184 271.784 195.72 272.52C195.256 273.256 194.6 273.84 193.752 274.272C192.904 274.704 191.896 274.92 190.728 274.92ZM187.32 264.912C187.32 265.568 187.472 266.16 187.776 266.688C188.08 267.2 188.488 267.616 189 267.936C189.528 268.24 190.112 268.392 190.752 268.392C191.616 268.392 192.352 268.16 192.96 267.696C193.584 267.216 193.984 266.608 194.16 265.872V263.904C193.952 263.2 193.536 262.624 192.912 262.176C192.288 261.728 191.568 261.504 190.752 261.504C190.096 261.504 189.504 261.648 188.976 261.936C188.464 262.224 188.056 262.624 187.752 263.136C187.464 263.648 187.32 264.24 187.32 264.912ZM204.904 270.24C203.784 270.24 202.808 270.016 201.976 269.568C201.16 269.104 200.528 268.472 200.08 267.672C199.648 266.872 199.432 265.968 199.432 264.96C199.432 263.984 199.672 263.096 200.152 262.296C200.648 261.48 201.312 260.84 202.144 260.376C202.992 259.896 203.928 259.656 204.952 259.656C206.264 259.656 207.352 260.04 208.216 260.808C209.08 261.576 209.672 262.632 209.992 263.976L202.12 266.736C202.392 267.232 202.776 267.624 203.272 267.912C203.768 268.184 204.328 268.32 204.952 268.32C205.4 268.32 205.824 268.24 206.224 268.08C206.624 267.92 207.008 267.712 207.376 267.456L208.408 269.112C207.896 269.448 207.328 269.72 206.704 269.928C206.096 270.136 205.496 270.24 204.904 270.24ZM201.64 264.84C201.624 265.032 201.632 265.216 201.664 265.392L207.448 263.256C207.224 262.776 206.896 262.352 206.464 261.984C206.048 261.616 205.488 261.432 204.784 261.432C203.872 261.432 203.12 261.752 202.528 262.392C201.936 263.032 201.64 263.848 201.64 264.84ZM219.182 270L226.766 251.928H226.91L234.494 270H231.806L230.006 265.44H223.334L221.486 270H219.182ZM224.15 263.424H229.214L226.742 257.112L224.15 263.424ZM240.351 270.288L234.831 260.064H237.495L240.495 266.424L243.279 260.064H245.775L240.471 270.288H240.351ZM251.955 270.24C251.011 270.24 250.155 270.04 249.387 269.64C248.635 269.24 248.035 268.656 247.587 267.888C247.155 267.104 246.939 266.152 246.939 265.032C246.939 263.912 247.163 262.952 247.611 262.152C248.075 261.352 248.691 260.736 249.459 260.304C250.243 259.872 251.099 259.656 252.027 259.656C252.923 259.656 253.683 259.848 254.307 260.232C254.931 260.616 255.419 261.08 255.771 261.624L255.939 260.064H258.003V270H255.771V268.368C255.579 268.624 255.299 268.896 254.931 269.184C254.579 269.472 254.147 269.72 253.635 269.928C253.139 270.136 252.579 270.24 251.955 270.24ZM252.555 268.392C253.371 268.392 254.067 268.168 254.643 267.72C255.219 267.256 255.595 266.632 255.771 265.848V263.88C255.579 263.192 255.179 262.624 254.571 262.176C253.963 261.728 253.267 261.504 252.483 261.504C251.875 261.504 251.323 261.648 250.827 261.936C250.331 262.224 249.931 262.624 249.627 263.136C249.339 263.648 249.195 264.24 249.195 264.912C249.195 265.568 249.347 266.16 249.651 266.688C249.955 267.2 250.363 267.616 250.875 267.936C251.387 268.24 251.947 268.392 252.555 268.392ZM261.889 260.064H264.121V270H261.889V260.064ZM261.721 256.488C261.721 256.12 261.857 255.824 262.129 255.6C262.417 255.36 262.729 255.24 263.065 255.24C263.401 255.24 263.705 255.36 263.977 255.6C264.249 255.824 264.385 256.12 264.385 256.488C264.385 256.856 264.249 257.16 263.977 257.4C263.705 257.624 263.401 257.736 263.065 257.736C262.729 257.736 262.417 257.624 262.129 257.4C261.857 257.16 261.721 256.856 261.721 256.488ZM268.007 251.4H270.239V270H268.007V251.4ZM278.276 270.24C277.332 270.24 276.476 270.04 275.708 269.64C274.956 269.24 274.356 268.656 273.908 267.888C273.476 267.104 273.26 266.152 273.26 265.032C273.26 263.912 273.484 262.952 273.932 262.152C274.396 261.352 275.012 260.736 275.78 260.304C276.564 259.872 277.42 259.656 278.348 259.656C279.244 259.656 280.004 259.848 280.628 260.232C281.252 260.616 281.74 261.08 282.092 261.624L282.26 260.064H284.324V270H282.092V268.368C281.9 268.624 281.62 268.896 281.252 269.184C280.9 269.472 280.468 269.72 279.956 269.928C279.46 270.136 278.9 270.24 278.276 270.24ZM278.876 268.392C279.692 268.392 280.388 268.168 280.964 267.72C281.54 267.256 281.916 266.632 282.092 265.848V263.88C281.9 263.192 281.5 262.624 280.892 262.176C280.284 261.728 279.588 261.504 278.804 261.504C278.196 261.504 277.644 261.648 277.148 261.936C276.652 262.224 276.252 262.624 275.948 263.136C275.66 263.648 275.516 264.24 275.516 264.912C275.516 265.568 275.668 266.16 275.972 266.688C276.276 267.2 276.684 267.616 277.196 267.936C277.708 268.24 278.268 268.392 278.876 268.392ZM294.282 270.24C293.434 270.24 292.682 270.08 292.026 269.76C291.386 269.424 290.858 269 290.442 268.488V270H288.21V251.4H290.442V261.408C290.842 260.88 291.402 260.456 292.122 260.136C292.842 259.816 293.658 259.656 294.57 259.656C295.45 259.656 296.258 259.872 296.994 260.304C297.73 260.72 298.322 261.32 298.77 262.104C299.218 262.888 299.442 263.808 299.442 264.864C299.442 266 299.202 266.968 298.722 267.768C298.242 268.568 297.61 269.184 296.826 269.616C296.042 270.032 295.194 270.24 294.282 270.24ZM293.802 268.32C294.778 268.32 295.578 268 296.202 267.36C296.842 266.704 297.162 265.872 297.162 264.864C297.162 264.224 297.01 263.648 296.706 263.136C296.418 262.608 296.018 262.192 295.506 261.888C295.01 261.584 294.442 261.432 293.802 261.432C292.97 261.432 292.25 261.656 291.642 262.104C291.034 262.552 290.634 263.128 290.442 263.832V265.872C290.634 266.576 291.026 267.16 291.618 267.624C292.21 268.088 292.938 268.32 293.802 268.32ZM302.436 251.4H304.668V270H302.436V251.4ZM313.161 270.24C312.041 270.24 311.065 270.016 310.233 269.568C309.417 269.104 308.785 268.472 308.337 267.672C307.905 266.872 307.689 265.968 307.689 264.96C307.689 263.984 307.929 263.096 308.409 262.296C308.905 261.48 309.569 260.84 310.401 260.376C311.249 259.896 312.185 259.656 313.209 259.656C314.521 259.656 315.609 260.04 316.473 260.808C317.337 261.576 317.929 262.632 318.249 263.976L310.377 266.736C310.649 267.232 311.033 267.624 311.529 267.912C312.025 268.184 312.585 268.32 313.209 268.32C313.657 268.32 314.081 268.24 314.481 268.08C314.881 267.92 315.265 267.712 315.633 267.456L316.665 269.112C316.153 269.448 315.585 269.72 314.961 269.928C314.353 270.136 313.753 270.24 313.161 270.24ZM309.897 264.84C309.881 265.032 309.889 265.216 309.921 265.392L315.705 263.256C315.481 262.776 315.153 262.352 314.721 261.984C314.305 261.616 313.745 261.432 313.041 261.432C312.129 261.432 311.377 261.752 310.785 262.392C310.193 263.032 309.897 263.848 309.897 264.84Z" fill="#5A6470"/>
</svg>
