<svg width="676" height="501" viewBox="0 0 676 501" fill="none" xmlns="http://www.w3.org/2000/svg">
<path d="M212.81 177.429C214.547 176.205 216.543 175.366 218.656 174.972C224.96 174.018 230.619 178.958 236.717 180.974C244.078 183.403 252.075 181.478 259.165 178.274C266.254 175.071 272.886 170.545 280.069 167.54C287.252 164.534 295.408 163.113 302.517 166.226C301.966 171.73 302.038 177.275 302.732 182.764C294.183 169.852 274.261 178.949 264.73 185.329C261.765 187.317 258.903 189.531 255.685 190.953C247.108 194.741 241.337 189.324 234.061 185.32C232.057 184.223 229.791 183.647 227.485 183.647C225.18 183.647 222.914 184.223 220.91 185.32C214.915 188.586 211.183 196.378 210.537 202.758C210.379 203.956 210.417 205.171 210.65 206.357C211.083 207.597 211.445 208.859 211.735 210.137C212.221 214.573 208.208 212.332 206.263 210.829C205.065 209.832 203.934 208.762 202.877 207.626C202.344 207.095 198.827 204.207 198.939 203.64C200.745 194.633 205.459 182.225 212.81 177.429Z" fill="#5C6773"/>
<path d="M210.388 213.088C208.779 213.088 206.703 211.612 206.01 211.081C204.792 210.103 203.636 209.054 202.55 207.941C202.428 207.824 202.157 207.581 201.811 207.284C198.865 204.702 198.378 204.063 198.481 203.559C200.352 194.363 205.113 181.91 212.511 177.051C214.305 175.795 216.365 174.935 218.544 174.531C222.884 173.874 226.962 175.917 230.862 177.887C232.779 178.928 234.773 179.83 236.829 180.587C243.04 182.629 250.475 181.721 258.94 177.887C262.195 176.412 265.403 174.63 268.508 172.911C272.186 170.779 275.986 168.851 279.891 167.135C288.524 163.536 296.437 163.068 302.76 165.821C302.847 165.861 302.92 165.925 302.968 166.005C303.016 166.086 303.038 166.178 303.031 166.271C302.482 171.742 302.551 177.254 303.237 182.71C303.252 182.811 303.23 182.913 303.175 183C303.121 183.087 303.037 183.153 302.937 183.187C302.837 183.219 302.728 183.218 302.628 183.184C302.528 183.15 302.443 183.084 302.386 182.998C301.399 181.444 300.084 180.107 298.526 179.073C296.968 178.039 295.201 177.332 293.341 176.997C284.577 175.296 272.979 180.38 265.038 185.698C264.374 186.139 263.72 186.598 263.065 187.047C260.833 188.698 258.443 190.141 255.928 191.357C248.624 194.588 243.264 191.357 237.577 187.884C236.39 187.155 235.146 186.409 233.883 185.707C231.947 184.654 229.761 184.101 227.537 184.101C225.313 184.101 223.127 184.654 221.191 185.707C215.074 189.045 211.641 196.9 211.042 202.803C210.893 203.947 210.931 205.107 211.155 206.24C211.283 206.752 211.439 207.256 211.622 207.752C211.915 208.499 212.122 209.274 212.24 210.064C212.408 211.567 212.09 212.539 211.304 212.953C211.015 213.071 210.7 213.118 210.388 213.088ZM199.37 203.649C200.283 204.726 201.298 205.72 202.4 206.618C202.765 206.942 203.045 207.185 203.176 207.311C204.237 208.401 205.368 209.426 206.562 210.379C208.031 211.513 209.995 212.539 210.818 212.098C211.351 211.819 211.36 210.847 211.276 210.091C211.17 209.365 210.979 208.653 210.706 207.968C210.505 207.442 210.34 206.904 210.21 206.357C209.961 205.136 209.916 203.885 210.079 202.65C210.696 196.531 214.288 188.352 220.686 184.87C222.763 183.74 225.108 183.146 227.495 183.146C229.881 183.146 232.227 183.74 234.304 184.87C235.595 185.572 236.839 186.328 238.045 187.056C243.751 190.521 248.67 193.508 255.507 190.485C257.972 189.293 260.311 187.877 262.494 186.256C263.158 185.806 263.813 185.356 264.477 184.906C272.577 179.507 284.446 174.306 293.472 176.052C296.873 176.663 299.929 178.437 302.077 181.046C301.581 176.193 301.562 171.307 302.021 166.451C294.426 163.284 285.989 165.479 280.219 167.891C276.37 169.594 272.623 171.501 268.995 173.604C265.88 175.332 262.653 177.123 259.37 178.616C250.681 182.566 243.002 183.493 236.558 181.316C234.459 180.562 232.42 179.659 230.46 178.616C226.494 176.691 222.753 174.792 218.731 175.413C216.7 175.8 214.784 176.614 213.119 177.797C205.917 182.485 201.24 194.642 199.37 203.649Z" fill="#5C6773"/>
<path d="M252.15 207.77C243.526 205.97 234.603 200.446 225.895 202.443C221.013 203.559 216.243 205.853 211.304 206.195C209.088 206.348 198.939 203.64 198.939 203.64C198.939 203.64 203.214 212.197 208.554 214.78C211.287 216.039 214.349 216.483 217.346 216.057C220.498 215.652 223.248 213.817 226.428 213.511C229.347 213.223 232.545 214.483 235.239 215.526C244.901 219.243 253.553 225.001 264.43 223.535C274.719 222.149 283.754 216.111 291.106 209.399C291.929 208.643 292.733 207.878 293.519 207.104C290.713 202.893 291.816 198.718 287.954 199.78C284.297 200.788 280.237 204.801 276.393 206.132C268.639 208.888 260.228 209.456 252.15 207.77V207.77Z" fill="white"/>
<path d="M260.895 224.218C253.974 224.218 247.959 221.519 241.646 218.739C239.504 217.785 237.297 216.795 235.099 215.94L234.959 215.886C232.293 214.86 229.262 213.691 226.541 213.952C224.963 214.172 223.424 214.599 221.967 215.22C220.525 215.818 219.015 216.249 217.468 216.507C214.38 216.949 211.224 216.484 208.414 215.175C202.989 212.557 198.762 204.189 198.584 203.838C198.544 203.76 198.528 203.672 198.54 203.585C198.552 203.499 198.59 203.418 198.649 203.352C198.705 203.285 198.78 203.236 198.865 203.21C198.95 203.185 199.041 203.184 199.126 203.208C201.932 203.955 209.583 205.853 211.342 205.745C214.418 205.394 217.437 204.678 220.33 203.613C222.135 203.028 223.997 202.425 225.849 202.002C231.863 200.626 238.008 202.74 243.872 204.783C246.62 205.8 249.431 206.651 252.29 207.329C260.28 209.01 268.604 208.448 276.272 205.709C278.235 204.898 280.088 203.858 281.79 202.614C283.81 201.273 285.887 199.915 287.86 199.348C290.732 198.556 291.33 200.41 292.032 202.56C292.456 204.074 293.102 205.522 293.949 206.861C294.008 206.946 294.035 207.048 294.025 207.15C294.015 207.252 293.968 207.347 293.893 207.419C293.098 208.202 292.284 208.976 291.47 209.723C282.407 217.992 273.335 222.788 264.524 223.975C263.322 224.141 262.109 224.222 260.895 224.218V224.218ZM227.298 213.025C230.001 213.025 232.789 214.105 235.277 215.058L235.417 215.112C237.671 216.012 239.888 216.975 242.039 217.929C249.297 221.15 256.153 224.227 264.365 223.094C272.979 221.933 281.865 217.218 290.788 209.075C291.508 208.427 292.228 207.743 292.93 207.05C292.125 205.728 291.496 204.313 291.059 202.839C290.292 200.482 289.937 199.699 288.038 200.221C285.955 200.982 284.003 202.041 282.248 203.361C280.482 204.653 278.556 205.729 276.515 206.564C268.683 209.363 260.18 209.938 252.019 208.22C249.11 207.532 246.248 206.669 243.451 205.637C237.68 203.64 231.704 201.57 225.961 202.884C224.146 203.307 222.313 203.901 220.527 204.468C217.56 205.566 214.462 206.3 211.304 206.654C209.434 206.78 202.466 205.035 199.809 204.351C201.053 206.591 204.598 212.386 208.732 214.384C211.377 215.606 214.342 216.036 217.244 215.616C218.722 215.376 220.163 214.962 221.537 214.384C223.079 213.719 224.71 213.262 226.382 213.025C226.681 213.025 226.99 213.025 227.298 213.025Z" fill="#5C6773"/>
<path d="M239.149 228.816L238.466 260.256L339.985 291.371L446.752 251.995C448.173 251.482 449.395 250.559 450.252 249.353C451.109 248.147 451.559 246.717 451.541 245.256L451.241 222.095C451.216 220.287 450.477 218.557 449.174 217.254L411.257 171.634L414.624 155.689L391.793 149.22L389.239 137.162L356.288 129.469L283.221 142.597L290.61 210.415L239.149 228.816Z" fill="#5C6773"/>
<path d="M339.985 291.812C339.939 291.821 339.891 291.821 339.845 291.812L238.326 260.715C238.23 260.683 238.148 260.623 238.089 260.544C238.03 260.465 237.999 260.371 237.998 260.274L238.681 228.834C238.684 228.744 238.715 228.656 238.77 228.583C238.825 228.509 238.902 228.452 238.99 228.421L290.096 210.118L282.753 142.633C282.741 142.521 282.773 142.408 282.842 142.317C282.911 142.226 283.013 142.162 283.127 142.138L356.232 129.01C356.297 128.997 356.364 128.997 356.428 129.01L389.38 136.703C389.466 136.721 389.545 136.763 389.606 136.824C389.668 136.885 389.709 136.962 389.726 137.045L392.185 148.824L414.745 155.212C414.857 155.246 414.952 155.317 415.012 155.413C415.072 155.51 415.094 155.624 415.073 155.734L411.752 171.472L449.53 216.939C450.899 218.321 451.675 220.15 451.7 222.059L451.999 245.22C452.024 246.778 451.549 248.305 450.639 249.593C449.728 250.882 448.426 251.868 446.911 252.418L340.144 291.785C340.094 291.803 340.04 291.812 339.985 291.812V291.812ZM238.971 259.932L339.985 290.894L446.612 251.573C447.94 251.091 449.081 250.229 449.883 249.102C450.684 247.975 451.106 246.639 451.092 245.274L450.793 222.113C450.764 220.431 450.072 218.823 448.856 217.614L410.901 171.895C410.856 171.845 410.824 171.785 410.808 171.721C410.792 171.657 410.792 171.59 410.808 171.526L414.081 155.986L391.634 149.634C391.551 149.612 391.477 149.568 391.419 149.507C391.361 149.447 391.322 149.372 391.306 149.292L388.884 137.531L356.307 129.928L283.735 142.966L291.031 210.37C291.045 210.47 291.023 210.571 290.968 210.656C290.914 210.741 290.83 210.806 290.732 210.838L239.588 229.131L238.971 259.932Z" fill="#5C6773"/>
<path d="M278.441 199.042V154.223C278.441 143.857 283.651 141.508 287.795 141.175C291.938 140.842 376.491 157.903 381.757 159.936C387.023 161.97 387.312 162.636 388.706 163.616C390.1 164.597 388.706 240.55 388.706 240.55C388.706 240.55 345.242 258.609 340.07 257.943C334.897 257.277 240.973 230.85 239.233 228.843C237.493 226.837 239.233 220.142 242.712 218.478C246.192 216.813 278.441 199.042 278.441 199.042Z" fill="white"/>
<path d="M340.266 258.384H339.92C334.757 257.718 240.72 231.39 238.793 229.122C237.989 228.222 237.783 226.423 238.232 224.344C238.681 222.266 240.103 219.179 242.413 218.046C245.687 216.471 275.018 200.4 277.955 198.781V154.222C277.955 143.722 283.296 141.085 287.767 140.725H287.898C293.154 140.725 376.098 157.273 381.86 159.495C386.293 161.196 387.275 161.961 388.313 162.771L388.921 163.229C390.296 164.219 389.632 212.089 389.108 240.532C389.108 240.618 389.081 240.703 389.031 240.775C388.981 240.847 388.911 240.903 388.828 240.937C387.097 241.666 346.794 258.384 340.266 258.384ZM287.991 141.625H287.869C281.921 142.102 278.909 146.34 278.909 154.222V199.042C278.908 199.121 278.887 199.2 278.846 199.269C278.805 199.338 278.746 199.396 278.675 199.438C277.347 200.157 246.285 217.191 242.834 218.846C240.963 219.746 239.626 222.347 239.149 224.515C238.765 226.315 238.906 227.826 239.504 228.528C240.57 229.428 259.922 235.322 288.777 243.546C314.629 250.916 337.628 257.16 340.041 257.466C344.054 257.988 373.124 246.479 388.201 240.226C388.734 210.703 389.202 166.442 388.304 163.895L387.743 163.463C386.807 162.699 385.872 161.979 381.532 160.323C375.789 158.137 293.219 141.625 287.991 141.625Z" fill="#5C6773"/>
<path d="M302.778 171.067H302.666L286.672 167.225C286.571 167.199 286.481 167.142 286.417 167.062C286.353 166.982 286.317 166.885 286.317 166.784V158.407C286.316 158.338 286.332 158.269 286.363 158.207C286.394 158.145 286.439 158.09 286.495 158.047C286.552 158.007 286.617 157.979 286.687 157.965C286.756 157.951 286.828 157.951 286.897 157.966L302.891 161.646C302.993 161.67 303.083 161.727 303.148 161.807C303.212 161.887 303.247 161.986 303.246 162.087V170.617C303.246 170.685 303.231 170.751 303.2 170.812C303.169 170.873 303.124 170.926 303.068 170.968C302.986 171.031 302.884 171.066 302.778 171.067ZM287.29 166.415L302.348 170.014V162.438L287.29 158.973V166.415Z" fill="#D1D3D4"/>
<path d="M291.648 194.111C295.171 194.111 298.027 190.715 298.027 186.526C298.027 182.336 295.171 178.94 291.648 178.94C288.125 178.94 285.269 182.336 285.269 186.526C285.269 190.715 288.125 194.111 291.648 194.111Z" fill="#768492"/>
<path d="M391.793 149.652C391.746 149.66 391.699 149.66 391.652 149.652L368.531 142.966C368.434 142.937 368.35 142.878 368.291 142.798C368.232 142.719 368.201 142.623 368.204 142.525C368.203 142.427 368.237 142.332 368.3 142.255C368.363 142.179 368.451 142.125 368.55 142.102L389.127 136.748C389.186 136.732 389.248 136.727 389.309 136.734C389.37 136.742 389.428 136.76 389.482 136.79C389.535 136.819 389.581 136.858 389.618 136.905C389.655 136.952 389.682 137.006 389.698 137.063C389.716 137.12 389.722 137.18 389.715 137.239C389.708 137.298 389.689 137.355 389.658 137.406C389.627 137.458 389.586 137.503 389.536 137.538C389.487 137.574 389.43 137.599 389.37 137.612L370.346 142.561L391.858 148.797C391.977 148.83 392.078 148.908 392.137 149.012C392.197 149.117 392.211 149.24 392.176 149.355C392.146 149.433 392.095 149.502 392.027 149.554C391.96 149.607 391.879 149.64 391.793 149.652V149.652Z" fill="#D1D3D4"/>
<path d="M388.659 164.039C388.535 164.057 388.409 164.027 388.308 163.955C388.207 163.884 388.14 163.776 388.122 163.657C388.103 163.538 388.134 163.416 388.209 163.319C388.283 163.222 388.395 163.157 388.519 163.14L414.493 155.239C414.617 155.203 414.751 155.217 414.865 155.276C414.979 155.335 415.064 155.435 415.101 155.554C415.138 155.674 415.124 155.802 415.063 155.912C415.002 156.022 414.897 156.103 414.773 156.139L388.809 164.057L388.659 164.039Z" fill="#D1D3D4"/>
<path d="M339.985 291.821C339.861 291.821 339.742 291.773 339.655 291.689C339.567 291.605 339.518 291.49 339.518 291.371V257.916C339.518 257.797 339.567 257.682 339.655 257.598C339.742 257.514 339.861 257.466 339.985 257.466C340.109 257.466 340.228 257.514 340.316 257.598C340.404 257.682 340.453 257.797 340.453 257.916V291.371C340.451 291.489 340.401 291.603 340.313 291.686C340.226 291.77 340.109 291.818 339.985 291.821V291.821Z" fill="#D1D3D4"/>
<path d="M332.896 248.342H332.465C324.506 247.676 245.481 223.589 242.132 222.563C242.008 222.526 241.905 222.443 241.844 222.332C241.784 222.222 241.771 222.093 241.81 221.973C241.848 221.854 241.934 221.754 242.049 221.696C242.164 221.638 242.298 221.626 242.422 221.663C243.245 221.915 324.73 246.741 332.55 247.397C340.369 248.054 374.527 227.017 376.725 224.002L378.109 163.581C378.114 163.462 378.166 163.35 378.255 163.268C378.344 163.185 378.463 163.14 378.586 163.14C378.648 163.14 378.709 163.152 378.766 163.175C378.823 163.198 378.874 163.232 378.917 163.275C378.96 163.318 378.993 163.369 379.015 163.424C379.037 163.48 379.047 163.539 379.044 163.599L377.651 224.146C377.651 224.219 377.632 224.29 377.595 224.353C375.958 227.188 342.062 248.342 332.896 248.342Z" fill="#D1D3D4"/>
<path d="M374.059 223.912C374.019 223.921 373.977 223.921 373.937 223.912L281.341 200.266C281.222 200.234 281.121 200.159 281.06 200.056C280.999 199.953 280.982 199.831 281.014 199.717C281.028 199.659 281.054 199.604 281.091 199.557C281.127 199.509 281.174 199.469 281.227 199.44C281.281 199.41 281.34 199.391 281.402 199.385C281.463 199.378 281.525 199.384 281.584 199.402L374.181 223.049C374.242 223.056 374.301 223.076 374.355 223.105C374.409 223.135 374.456 223.175 374.493 223.222C374.531 223.269 374.559 223.323 374.575 223.38C374.591 223.438 374.595 223.498 374.587 223.557C374.579 223.616 374.559 223.673 374.529 223.725C374.498 223.776 374.457 223.822 374.407 223.858C374.358 223.894 374.302 223.921 374.243 223.937C374.183 223.952 374.12 223.956 374.059 223.948V223.912Z" fill="#D1D3D4"/>
<path d="M329.997 206.085C341.23 205.696 349.882 193.231 349.321 178.242C348.761 163.254 339.2 151.419 327.967 151.808C316.734 152.196 308.082 164.662 308.642 179.65C309.203 194.638 318.763 206.474 329.997 206.085Z" fill="#5C6773"/>
<path d="M329.444 206.537C324.066 206.537 318.931 203.838 314.947 198.907C310.962 193.976 308.446 187.003 308.175 179.66C307.605 164.453 316.471 151.766 327.948 151.361C333.56 151.154 338.882 153.872 343.006 158.983C347.131 164.093 349.498 170.887 349.778 178.229C350.349 193.436 341.473 206.123 330.006 206.528L329.444 206.537ZM328.509 152.252H327.985C317.033 152.639 308.568 164.912 309.111 179.633C309.382 186.832 311.72 193.436 315.658 198.358C319.595 203.28 324.702 205.79 329.949 205.637C340.911 205.26 349.376 192.977 348.824 178.256C348.562 171.058 346.224 164.453 342.277 159.531C338.461 154.816 333.588 152.252 328.5 152.252H328.509Z" fill="#5C6773"/>
<path d="M314.835 206.231L329.987 206.078L327.957 151.811L312.908 154.763L314.835 206.231Z" fill="#5C6773"/>
<path d="M314.835 206.672C314.714 206.672 314.598 206.627 314.51 206.547C314.423 206.466 314.372 206.356 314.367 206.24L312.496 154.771C312.494 154.667 312.529 154.566 312.595 154.484C312.662 154.402 312.756 154.344 312.861 154.322L327.91 151.37C327.977 151.357 328.046 151.358 328.113 151.373C328.179 151.389 328.241 151.419 328.294 151.46C328.351 151.505 328.395 151.564 328.421 151.63C328.448 151.696 328.455 151.768 328.444 151.838L330.473 206.114C330.475 206.174 330.464 206.233 330.442 206.289C330.419 206.345 330.385 206.395 330.342 206.438C330.255 206.522 330.138 206.571 330.015 206.573L314.863 206.717L314.835 206.672ZM313.394 155.122L315.265 205.772L329.491 205.637L327.508 152.351L313.394 155.122Z" fill="#5C6773"/>
<path d="M314.831 206.229C325.481 205.861 333.684 194.04 333.152 179.826C332.621 165.613 323.557 154.389 312.907 154.758C302.257 155.126 294.055 166.947 294.586 181.161C295.117 195.374 304.182 206.598 314.831 206.229Z" fill="white"/>
<path d="M314.33 206.726C303.667 206.726 294.688 195.416 294.117 181.208C293.584 166.811 302.002 154.727 312.899 154.349C318.192 154.169 323.281 156.733 327.2 161.547C331.257 166.848 333.502 173.231 333.625 179.813V179.813C334.168 194.21 325.74 206.303 314.853 206.681L314.33 206.726ZM313.394 155.239H312.899C302.526 155.59 294.51 167.225 295.025 181.172C295.567 194.867 304.125 205.826 314.33 205.826H314.816C325.198 205.467 333.214 193.832 332.69 179.885C332.575 173.495 330.398 167.297 326.461 162.15C322.832 157.633 318.239 155.203 313.422 155.203L313.394 155.239Z" fill="#5C6773"/>
<path d="M315.235 200.188C323.649 199.864 330.093 190.501 329.626 179.275C329.159 168.049 321.959 159.21 313.544 159.534C305.13 159.858 298.686 169.221 299.153 180.447C299.62 191.673 306.82 200.511 315.235 200.188Z" fill="#768492"/>
<path d="M356.438 163.59V182.656L371.506 186.526V166.604L356.438 163.59Z" fill="#5C6773"/>
<path d="M371.468 186.975H371.347L356.279 183.106C356.18 183.079 356.094 183.023 356.032 182.945C355.969 182.867 355.935 182.773 355.933 182.674V163.59C355.933 163.523 355.948 163.457 355.978 163.397C356.007 163.336 356.051 163.283 356.104 163.241C356.158 163.199 356.221 163.169 356.288 163.153C356.356 163.137 356.426 163.135 356.494 163.149L371.562 166.163C371.667 166.182 371.761 166.235 371.83 166.314C371.898 166.393 371.935 166.492 371.936 166.595V186.526C371.937 186.596 371.92 186.665 371.887 186.727C371.855 186.79 371.807 186.844 371.749 186.885C371.668 186.943 371.569 186.975 371.468 186.975V186.975ZM356.868 182.314L371.001 185.914V166.964L356.868 164.138V182.314Z" fill="#5C6773"/>
<path d="M270.557 230.805C270.478 230.807 270.401 230.788 270.332 230.752C270.263 230.716 270.205 230.663 270.164 230.598C270.096 230.499 270.072 230.378 270.097 230.262C270.121 230.145 270.192 230.043 270.295 229.977L307.043 206.798C307.147 206.733 307.272 206.71 307.393 206.733C307.514 206.757 307.62 206.826 307.689 206.924C307.757 207.025 307.782 207.147 307.757 207.265C307.733 207.383 307.661 207.486 307.558 207.554L270.809 230.724C270.736 230.776 270.648 230.804 270.557 230.805V230.805Z" fill="#D1D3D4"/>
<path d="M276.234 232.821C276.158 232.822 276.082 232.805 276.015 232.77C275.948 232.736 275.891 232.685 275.851 232.623C275.816 232.574 275.792 232.519 275.779 232.461C275.767 232.403 275.767 232.343 275.779 232.285C275.792 232.228 275.816 232.173 275.851 232.124C275.885 232.075 275.93 232.034 275.982 232.002L313.609 207.761C313.66 207.727 313.718 207.703 313.778 207.69C313.839 207.678 313.901 207.677 313.962 207.688C314.023 207.699 314.081 207.721 314.133 207.754C314.185 207.786 314.229 207.829 314.264 207.878C314.332 207.979 314.357 208.101 314.332 208.219C314.308 208.336 314.236 208.44 314.133 208.508L276.496 232.749C276.419 232.799 276.327 232.824 276.234 232.821V232.821Z" fill="#D1D3D4"/>
<path d="M282.772 234.728C282.694 234.727 282.617 234.708 282.549 234.672C282.48 234.636 282.422 234.584 282.379 234.521C282.312 234.421 282.29 234.299 282.316 234.183C282.342 234.066 282.415 233.965 282.519 233.9L319.932 210.046C319.983 210.007 320.041 209.978 320.104 209.962C320.167 209.946 320.233 209.943 320.297 209.952C320.361 209.962 320.423 209.984 320.478 210.018C320.533 210.052 320.579 210.096 320.615 210.148C320.651 210.2 320.676 210.259 320.686 210.321C320.697 210.383 320.695 210.446 320.679 210.507C320.663 210.567 320.634 210.624 320.594 210.674C320.554 210.723 320.504 210.764 320.447 210.793L283.034 234.647C282.957 234.699 282.866 234.728 282.772 234.728Z" fill="#D1D3D4"/>
<path d="M289.852 236.807C289.776 236.808 289.701 236.79 289.634 236.755C289.567 236.721 289.51 236.67 289.469 236.609C289.434 236.561 289.409 236.506 289.396 236.448C289.383 236.391 289.382 236.331 289.393 236.274C289.405 236.216 289.428 236.161 289.462 236.112C289.496 236.062 289.539 236.02 289.59 235.988L327.087 211.27C327.137 211.228 327.196 211.197 327.259 211.179C327.322 211.16 327.389 211.155 327.454 211.163C327.52 211.171 327.583 211.192 327.639 211.225C327.695 211.259 327.744 211.303 327.781 211.355C327.818 211.408 327.844 211.467 327.855 211.53C327.867 211.593 327.865 211.657 327.849 211.718C327.832 211.78 327.803 211.838 327.762 211.888C327.721 211.938 327.67 211.979 327.611 212.008L290.096 236.726C290.023 236.773 289.939 236.801 289.852 236.807V236.807Z" fill="#D1D3D4"/>
<path d="M324.702 180.947C324.578 180.947 324.459 180.899 324.372 180.815C324.284 180.731 324.235 180.616 324.235 180.497C324.235 170.005 314.881 165.263 314.75 165.2C314.641 165.143 314.56 165.047 314.523 164.933C314.486 164.818 314.497 164.695 314.554 164.588C314.612 164.484 314.71 164.406 314.827 164.37C314.944 164.335 315.071 164.345 315.181 164.399C315.284 164.399 325.17 169.447 325.17 180.479C325.172 180.539 325.162 180.6 325.14 180.657C325.117 180.713 325.083 180.765 325.04 180.809C324.996 180.852 324.944 180.887 324.886 180.911C324.828 180.935 324.765 180.947 324.702 180.947V180.947Z" fill="white"/>
<path d="M246.799 249.107C246.799 249.107 235.575 248.09 219.89 263.108C207.852 274.644 214.334 284.784 198.434 296.707L282.734 329.487C282.734 329.487 287.803 330.575 295.015 320.012C303.012 308.314 288.888 287.34 327.751 274.635L246.799 249.107Z" fill="white"/>
<path d="M283.202 330C283.023 330.003 282.845 329.988 282.669 329.955L198.294 297.139C198.217 297.109 198.15 297.061 198.1 296.998C198.049 296.936 198.016 296.862 198.004 296.783C197.993 296.704 198.003 296.624 198.035 296.551C198.066 296.478 198.117 296.413 198.182 296.365C206.749 289.931 208.751 283.912 210.687 278.099C212.324 273.177 214.026 268.093 219.563 262.802C235.202 247.802 246.369 248.63 246.846 248.666H246.949L327.901 274.212C327.994 274.243 328.074 274.302 328.131 274.379C328.188 274.456 328.219 274.549 328.219 274.644C328.222 274.737 328.193 274.828 328.138 274.904C328.082 274.98 328.002 275.037 327.91 275.066C301.001 283.876 299.851 296.437 298.775 307.513C298.326 312.219 297.905 316.664 295.446 320.273C289.385 329.145 284.736 330 283.202 330ZM282.95 329.1C283.006 329.1 287.832 329.793 294.66 319.796C296.998 316.376 297.41 312.039 297.84 307.45C298.841 296.833 300.085 283.66 326.292 274.671L246.706 249.557C245.902 249.503 235.005 249.251 220.218 263.423C214.84 268.579 213.259 273.321 211.576 278.378C209.649 284.172 207.647 290.165 199.416 296.59L282.95 329.1V329.1Z" fill="#5C6773"/>
<path d="M252.533 252.454C252.533 252.454 234.285 256.108 227.055 265.142C215.551 279.538 220.265 285.558 211.407 293.575L282.772 320.786C282.772 320.786 288.178 316.988 290.32 308.287C292.462 299.586 292.275 292.145 298.261 284.784C304.247 277.424 318.772 271.809 318.772 271.809" fill="#768492"/>
<path d="M264.171 363.46L253.551 352.7L253.591 363H251.631V348.1H251.731L262.331 359.02L262.291 348.54H264.231V363.46H264.171ZM267.209 358.78C267.209 357.953 267.402 357.207 267.789 356.54C268.189 355.873 268.735 355.347 269.429 354.96C270.122 354.573 270.915 354.38 271.809 354.38C272.702 354.38 273.489 354.573 274.169 354.96C274.849 355.347 275.375 355.873 275.749 356.54C276.135 357.207 276.329 357.953 276.329 358.78C276.329 359.607 276.135 360.353 275.749 361.02C275.375 361.687 274.842 362.22 274.149 362.62C273.469 363.007 272.675 363.2 271.769 363.2C270.889 363.2 270.102 363.02 269.409 362.66C268.729 362.3 268.189 361.787 267.789 361.12C267.402 360.453 267.209 359.673 267.209 358.78ZM269.089 358.8C269.089 359.333 269.202 359.82 269.429 360.26C269.669 360.687 269.989 361.027 270.389 361.28C270.789 361.533 271.242 361.66 271.749 361.66C272.269 361.66 272.729 361.533 273.129 361.28C273.529 361.027 273.842 360.687 274.069 360.26C274.309 359.82 274.429 359.333 274.429 358.8C274.429 358.267 274.309 357.787 274.069 357.36C273.842 356.92 273.529 356.573 273.129 356.32C272.729 356.053 272.269 355.92 271.749 355.92C271.242 355.92 270.782 356.053 270.369 356.32C269.969 356.587 269.655 356.94 269.429 357.38C269.202 357.807 269.089 358.28 269.089 358.8ZM285.615 348.54H287.555V363H285.615V348.54ZM292.929 354.72L293.049 356.3C293.369 355.7 293.802 355.233 294.349 354.9C294.909 354.553 295.549 354.38 296.269 354.38C296.949 354.38 297.516 354.54 297.969 354.86C298.436 355.18 298.722 355.613 298.829 356.16C299.162 355.6 299.596 355.167 300.129 354.86C300.676 354.54 301.256 354.38 301.869 354.38C302.669 354.38 303.302 354.613 303.769 355.08C304.249 355.547 304.502 356.14 304.529 356.86V363H302.669V357.56C302.642 357.133 302.529 356.78 302.329 356.5C302.142 356.207 301.816 356.047 301.349 356.02C300.856 356.02 300.422 356.167 300.049 356.46C299.676 356.74 299.382 357.113 299.169 357.58C298.956 358.047 298.842 358.54 298.829 359.06V363H296.949V357.56C296.936 357.133 296.822 356.78 296.609 356.5C296.409 356.207 296.069 356.047 295.589 356.02C295.109 356.02 294.682 356.167 294.309 356.46C293.936 356.74 293.642 357.113 293.429 357.58C293.216 358.047 293.109 358.547 293.109 359.08V363H291.249V354.72H292.929ZM311.213 363.2C310.426 363.2 309.713 363.033 309.073 362.7C308.446 362.367 307.946 361.88 307.573 361.24C307.213 360.587 307.033 359.793 307.033 358.86C307.033 357.927 307.219 357.127 307.593 356.46C307.979 355.793 308.493 355.28 309.133 354.92C309.786 354.56 310.499 354.38 311.273 354.38C312.019 354.38 312.653 354.54 313.173 354.86C313.693 355.18 314.099 355.567 314.393 356.02L314.533 354.72H316.253V363H314.393V361.64C314.233 361.853 313.999 362.08 313.693 362.32C313.399 362.56 313.039 362.767 312.613 362.94C312.199 363.113 311.733 363.2 311.213 363.2ZM311.713 361.66C312.393 361.66 312.973 361.473 313.453 361.1C313.933 360.713 314.246 360.193 314.393 359.54V357.9C314.233 357.327 313.899 356.853 313.393 356.48C312.886 356.107 312.306 355.92 311.653 355.92C311.146 355.92 310.686 356.04 310.273 356.28C309.859 356.52 309.526 356.853 309.273 357.28C309.033 357.707 308.913 358.2 308.913 358.76C308.913 359.307 309.039 359.8 309.293 360.24C309.546 360.667 309.886 361.013 310.313 361.28C310.739 361.533 311.206 361.66 311.713 361.66ZM323.491 367.1C322.571 367.1 321.804 366.94 321.191 366.62C320.578 366.313 320.011 365.92 319.491 365.44L320.591 364.16C321.018 364.587 321.458 364.907 321.911 365.12C322.364 365.347 322.878 365.46 323.451 365.46C324.384 365.46 325.098 365.233 325.591 364.78C326.084 364.34 326.338 363.753 326.351 363.02V361.5C326.071 361.993 325.638 362.4 325.051 362.72C324.464 363.04 323.771 363.2 322.971 363.2C322.198 363.2 321.491 363.007 320.851 362.62C320.224 362.233 319.718 361.713 319.331 361.06C318.958 360.393 318.771 359.647 318.771 358.82C318.771 357.953 318.971 357.187 319.371 356.52C319.771 355.853 320.298 355.333 320.951 354.96C321.604 354.573 322.318 354.38 323.091 354.38C323.811 354.38 324.464 354.52 325.051 354.8C325.638 355.08 326.078 355.44 326.371 355.88L326.531 354.72H328.231V363.06C328.231 363.807 328.038 364.487 327.651 365.1C327.264 365.713 326.718 366.2 326.011 366.56C325.304 366.92 324.464 367.1 323.491 367.1ZM320.651 358.76C320.651 359.307 320.778 359.8 321.031 360.24C321.284 360.667 321.624 361.013 322.051 361.28C322.491 361.533 322.978 361.66 323.511 361.66C324.231 361.66 324.844 361.467 325.351 361.08C325.871 360.68 326.204 360.173 326.351 359.56V357.92C326.178 357.333 325.831 356.853 325.311 356.48C324.791 356.107 324.191 355.92 323.511 355.92C322.964 355.92 322.471 356.04 322.031 356.28C321.604 356.52 321.264 356.853 321.011 357.28C320.771 357.707 320.651 358.2 320.651 358.76ZM335.304 363.2C334.37 363.2 333.557 363.013 332.864 362.64C332.184 362.253 331.657 361.727 331.284 361.06C330.924 360.393 330.744 359.64 330.744 358.8C330.744 357.987 330.944 357.247 331.344 356.58C331.757 355.9 332.31 355.367 333.004 354.98C333.71 354.58 334.49 354.38 335.344 354.38C336.437 354.38 337.344 354.7 338.064 355.34C338.784 355.98 339.277 356.86 339.544 357.98L332.984 360.28C333.21 360.693 333.53 361.02 333.944 361.26C334.357 361.487 334.824 361.6 335.344 361.6C335.717 361.6 336.07 361.533 336.404 361.4C336.737 361.267 337.057 361.093 337.364 360.88L338.224 362.26C337.797 362.54 337.324 362.767 336.804 362.94C336.297 363.113 335.797 363.2 335.304 363.2ZM332.584 358.7C332.57 358.86 332.577 359.013 332.604 359.16L337.424 357.38C337.237 356.98 336.964 356.627 336.604 356.32C336.257 356.013 335.79 355.86 335.204 355.86C334.444 355.86 333.817 356.127 333.324 356.66C332.83 357.193 332.584 357.873 332.584 358.7ZM347.203 363L353.523 347.94H353.643L359.963 363H357.723L356.223 359.2H350.663L349.123 363H347.203ZM351.343 357.52H355.563L353.503 352.26L351.343 357.52ZM364.843 363.24L360.243 354.72H362.463L364.963 360.02L367.283 354.72H369.363L364.943 363.24H364.843ZM374.514 363.2C373.727 363.2 373.014 363.033 372.374 362.7C371.747 362.367 371.247 361.88 370.874 361.24C370.514 360.587 370.334 359.793 370.334 358.86C370.334 357.927 370.52 357.127 370.894 356.46C371.28 355.793 371.794 355.28 372.434 354.92C373.087 354.56 373.8 354.38 374.574 354.38C375.32 354.38 375.954 354.54 376.474 354.86C376.994 355.18 377.4 355.567 377.694 356.02L377.834 354.72H379.554V363H377.694V361.64C377.534 361.853 377.3 362.08 376.994 362.32C376.7 362.56 376.34 362.767 375.914 362.94C375.5 363.113 375.034 363.2 374.514 363.2ZM375.014 361.66C375.694 361.66 376.274 361.473 376.754 361.1C377.234 360.713 377.547 360.193 377.694 359.54V357.9C377.534 357.327 377.2 356.853 376.694 356.48C376.187 356.107 375.607 355.92 374.954 355.92C374.447 355.92 373.987 356.04 373.574 356.28C373.16 356.52 372.827 356.853 372.574 357.28C372.334 357.707 372.214 358.2 372.214 358.76C372.214 359.307 372.34 359.8 372.594 360.24C372.847 360.667 373.187 361.013 373.614 361.28C374.04 361.533 374.507 361.66 375.014 361.66ZM382.792 354.72H384.652V363H382.792V354.72ZM382.652 351.74C382.652 351.433 382.765 351.187 382.992 351C383.232 350.8 383.492 350.7 383.772 350.7C384.052 350.7 384.305 350.8 384.532 351C384.759 351.187 384.872 351.433 384.872 351.74C384.872 352.047 384.759 352.3 384.532 352.5C384.305 352.687 384.052 352.78 383.772 352.78C383.492 352.78 383.232 352.687 382.992 352.5C382.765 352.3 382.652 352.047 382.652 351.74ZM387.89 347.5H389.75V363H387.89V347.5ZM396.447 363.2C395.661 363.2 394.947 363.033 394.307 362.7C393.681 362.367 393.181 361.88 392.807 361.24C392.447 360.587 392.267 359.793 392.267 358.86C392.267 357.927 392.454 357.127 392.827 356.46C393.214 355.793 393.727 355.28 394.367 354.92C395.021 354.56 395.734 354.38 396.507 354.38C397.254 354.38 397.887 354.54 398.407 354.86C398.927 355.18 399.334 355.567 399.627 356.02L399.767 354.72H401.487V363H399.627V361.64C399.467 361.853 399.234 362.08 398.927 362.32C398.634 362.56 398.274 362.767 397.847 362.94C397.434 363.113 396.967 363.2 396.447 363.2ZM396.947 361.66C397.627 361.66 398.207 361.473 398.687 361.1C399.167 360.713 399.481 360.193 399.627 359.54V357.9C399.467 357.327 399.134 356.853 398.627 356.48C398.121 356.107 397.541 355.92 396.887 355.92C396.381 355.92 395.921 356.04 395.507 356.28C395.094 356.52 394.761 356.853 394.507 357.28C394.267 357.707 394.147 358.2 394.147 358.76C394.147 359.307 394.274 359.8 394.527 360.24C394.781 360.667 395.121 361.013 395.547 361.28C395.974 361.533 396.441 361.66 396.947 361.66ZM409.785 363.2C409.079 363.2 408.452 363.067 407.905 362.8C407.372 362.52 406.932 362.167 406.585 361.74V363H404.725V347.5H406.585V355.84C406.919 355.4 407.385 355.047 407.985 354.78C408.585 354.513 409.265 354.38 410.025 354.38C410.759 354.38 411.432 354.56 412.045 354.92C412.659 355.267 413.152 355.767 413.525 356.42C413.899 357.073 414.085 357.84 414.085 358.72C414.085 359.667 413.885 360.473 413.485 361.14C413.085 361.807 412.559 362.32 411.905 362.68C411.252 363.027 410.545 363.2 409.785 363.2ZM409.385 361.6C410.199 361.6 410.865 361.333 411.385 360.8C411.919 360.253 412.185 359.56 412.185 358.72C412.185 358.187 412.059 357.707 411.805 357.28C411.565 356.84 411.232 356.493 410.805 356.24C410.392 355.987 409.919 355.86 409.385 355.86C408.692 355.86 408.092 356.047 407.585 356.42C407.079 356.793 406.745 357.273 406.585 357.86V359.56C406.745 360.147 407.072 360.633 407.565 361.02C408.059 361.407 408.665 361.6 409.385 361.6ZM416.581 347.5H418.441V363H416.581V347.5ZM425.519 363.2C424.585 363.2 423.772 363.013 423.079 362.64C422.399 362.253 421.872 361.727 421.499 361.06C421.139 360.393 420.959 359.64 420.959 358.8C420.959 357.987 421.159 357.247 421.559 356.58C421.972 355.9 422.525 355.367 423.219 354.98C423.925 354.58 424.705 354.38 425.559 354.38C426.652 354.38 427.559 354.7 428.279 355.34C428.999 355.98 429.492 356.86 429.759 357.98L423.199 360.28C423.425 360.693 423.745 361.02 424.159 361.26C424.572 361.487 425.039 361.6 425.559 361.6C425.932 361.6 426.285 361.533 426.619 361.4C426.952 361.267 427.272 361.093 427.579 360.88L428.439 362.26C428.012 362.54 427.539 362.767 427.019 362.94C426.512 363.113 426.012 363.2 425.519 363.2ZM422.799 358.7C422.785 358.86 422.792 359.013 422.819 359.16L427.639 357.38C427.452 356.98 427.179 356.627 426.819 356.32C426.472 356.013 426.005 355.86 425.419 355.86C424.659 355.86 424.032 356.127 423.539 356.66C423.045 357.193 422.799 357.873 422.799 358.7Z" fill="#5A6470"/>
</svg>
